<svg xmlns="http://www.w3.org/2000/svg" xmlns:xlink="http://www.w3.org/1999/xlink" width="100px" height="100px"
     viewBox="0 0 400 400" version="1.1">
    <title>astronomer-monogram-reverse-on-purple</title>
    <defs>
        <linearGradient x1="20.007264%" y1="-5.53089117%" x2="82.1904169%" y2="89.3033953%" id="linearGradient-1">
            <stop stop-color="#DBCDF6" offset="0%"/>
            <stop stop-color="#FFFFFF" offset="100%"/>
        </linearGradient>
    </defs>
    <g id="astronomer-monogram-reverse-on-purple" stroke="none" stroke-width="1" fill="none" fill-rule="evenodd">
        <rect fill="#59418D" x="0" y="0" width="400" height="400"/>
        <g id="Group-3" transform="translate(50.000000, 50.000000)" fill="url(#linearGradient-1)">
            <path d="M163.336647,0.0815463606 C123.011468,1.38729488 85.6108842,18.3157153 58.0200254,47.751938 L58.0200254,47.751938 C1.06442291,108.518071 4.1651981,204.291755 64.9293177,261.248364 L64.9293177,261.248364 C86.2431202,281.224202 111.872839,293.782342 138.616019,299.085875 L138.616019,299.085875 L146.631724,279.043592 C122.246342,274.969294 98.7630034,263.93436 79.4113473,245.796839 L79.4113473,245.796839 C27.168319,196.825732 24.5024577,114.48203 73.4715507,62.2369878 L73.4715507,62.2369878 C97.1944944,36.9284204 129.351949,22.3698782 164.02224,21.248364 L164.02224,21.248364 C165.459872,21.201047 166.896498,21.1799054 168.330103,21.1799054 L168.330103,21.1799054 C194.480309,21.1799054 219.530143,28.9368771 240.865087,43.401792 L240.865087,43.401792 L248.892874,23.3272929 C224.927304,8.12040673 197.206575,0 168.344197,0 L168.344197,0 C166.678034,0 165.009857,0.0271821202 163.336647,0.0815463606 L163.336647,0.0815463606 Z M178.625079,76.7190174 L158.28782,76.7190174 L157.606253,76.7190174 L157.352553,77.3522601 L103.838006,211.137622 L103.28631,212.518876 L104.773272,212.518876 L126.370977,212.518876 L127.059591,212.518876 L127.308257,211.876573 L140.438227,178.11638 L198.143855,178.11638 L211.438932,211.881607 L211.689612,212.518876 L212.376212,212.518876 L234.737029,212.518876 L236.223992,212.518876 L235.671289,211.137622 L201.116774,124.750831 L200.864081,124.118595 L200.181507,124.118595 L178.561654,124.118595 L177.089793,124.118595 L177.623368,125.489782 L189.879484,156.990839 L148.866698,156.990839 L179.564373,78.0912111 L180.097948,76.7190174 L178.625079,76.7190174 Z"
                  id="Fill-1"/>
        </g>
    </g>
</svg>